<?xml version="1.0" standalone="no"?>
<!DOCTYPE svg PUBLIC "-//W3C//DTD SVG 20010904//EN"
 "http://www.w3.org/TR/2001/REC-SVG-20010904/DTD/svg10.dtd">
<svg version="1.0" xmlns="http://www.w3.org/2000/svg"
 width="512.000000pt" height="512.000000pt" viewBox="0 0 512.000000 512.000000"
 preserveAspectRatio="xMidYMid meet">

<g transform="translate(0.000000,512.000000) scale(0.100000,-0.100000)"
fill="#000000" stroke="none">
<path d="M830 3970 c-117 -15 -221 -90 -276 -197 l-29 -58 0 -1155 0 -1155 25
-50 c71 -147 200 -213 413 -215 l57 0 0 1026 c0 637 4 1024 9 1022 6 -1 350
-273 766 -603 415 -330 759 -601 764 -603 5 -2 341 254 747 569 l739 572 5
-989 5 -989 95 -3 c174 -6 272 28 360 125 27 29 59 79 72 111 l23 57 3 1025
c1 567 -2 1078 -7 1143 -11 144 -35 202 -116 276 -70 63 -139 90 -244 93 l-79
3 -768 -655 c-422 -360 -772 -656 -779 -658 -6 -2 -374 294 -816 657 l-804
660 -55 -1 c-30 0 -80 -4 -110 -8z"/>
</g>
</svg>
